<svg xmlns="http://www.w3.org/2000/svg" viewBox="0 0 245.89 164.87"><defs><style>.cls-1{fill:#fffffe;}.cls-1,.cls-2,.cls-3{stroke:#060707;stroke-miterlimit:10;}.cls-2{fill:#fff;}.cls-3{fill:#cac9c7;}.cls-4{fill:#483014;}.cls-5{fill:#dddbd9;}</style></defs><title>Asset 2</title><g id="Layer_2" data-name="Layer 2"><g id="Layer_1-2" data-name="Layer 1"><path class="cls-1" d="M238.29,22.29a10.44,10.44,0,0,0-1.27-2c-8.46,13-44.66,22.82-88,22.82-45.23,0-82.65-10.64-89-24.5a10.51,10.51,0,0,0-3,3.7A71.43,71.43,0,0,0,50,53.35V79.21c0,47,40.11,85.16,89.59,85.16h16.25c49.48,0,89.6-38.13,89.6-85.16V53.35A71.29,71.29,0,0,0,238.29,22.29Z"/><ellipse class="cls-2" cx="147.31" cy="22.4" rx="89.88" ry="21.9"/><ellipse class="cls-3" cx="147.67" cy="22.4" rx="77.65" ry="17.18"/><path class="cls-4" d="M204.6,34.08c-7.9,2.7-26.5,5.5-57.29,5.5S102.21,36.93,90.38,34c-4.09-1,26.5-8.94,57.29-8.94S208.57,32.72,204.6,34.08Z"/><path class="cls-2" d="M56.3,110.57c-.84.07-8,.1-8.91.1-14.85,0-26.88-11.44-26.88-25.55s12-25.55,26.88-25.55c.86,0,1.71,0,2.56.12L51.1,40.55c-.85,0-2.85,0-3.71,0C21.49,40.55.5,60.5.5,85.12s21,44.56,46.89,44.56c.86,0,18.39-.92,19.24-1Z"/><path class="cls-5" d="M226.12,51.31S214.88,58.16,202,56.78c0,0,13.64,66.54-22.65,99.43,0,0,24.15-6.37,35.85-20.8C215.15,135.41,245,96.77,226.12,51.31Z"/></g></g></svg>