<svg xmlns="http://www.w3.org/2000/svg" viewBox="0 0 243.5 190.21"><defs><style>.cls-1{fill:#fffffe;}.cls-1,.cls-2,.cls-3{stroke:#060707;stroke-miterlimit:10;}.cls-2{fill:#fff;}.cls-3{fill:#cac9c7;}.cls-4{fill:#483014;}.cls-5{fill:#dddbd9;}</style></defs><title>Asset 3</title><g id="Layer_2" data-name="Layer 2"><g id="Layer_1-2" data-name="Layer 1"><path class="cls-1" d="M243,96.68a10,10,0,0,0-.06-2.39c-13.93,6.87-50.05-3.24-87.31-25.44C116.73,45.7,90,17.4,91.7,2.26a10.55,10.55,0,0,0-4.45,1.66,71.21,71.21,0,0,0-22,23L52,49.19C28,89.6,42.9,142.88,85.41,168.2l14,8.32c42.51,25.32,96.48,13.1,120.55-27.3L233.16,127A71.37,71.37,0,0,0,243,96.68Z"/><ellipse class="cls-2" cx="164.74" cy="50.21" rx="21.9" ry="89.88" transform="translate(37.29 166.05) rotate(-59.22)"/><ellipse class="cls-3" cx="165.05" cy="50.39" rx="17.18" ry="77.65" transform="translate(37.28 166.4) rotate(-59.22)"/><path class="cls-4" d="M208,89.57c-8.17-1.72-25.57-8.84-52-24.6s-37.4-25.36-46-33.93c-3-3,27.34,5.87,53.79,21.63S212.09,90.43,208,89.57Z"/><path class="cls-2" d="M41.43,79.38c-.76-.36-7-4-7.71-4.47C21,67.31,16.48,51.32,23.7,39.2S47.12,23.4,59.88,31Q61,31.67,62,32.41L72.79,16.57c-.7-.48-2.44-1.46-3.18-1.9C47.36,1.41,19.11,7.81,6.52,29S1.74,78,24,91.24c.74.44,16.28,8.62,17,9Z"/><path class="cls-5" d="M217.65,115.38s-13.16.14-23.56-7.67c0,0-22.33,64.15-70.35,73.83,0,0,24,6.89,41.44.48C165.18,182,210.6,164.09,217.65,115.38Z"/></g></g></svg>