<svg xmlns="http://www.w3.org/2000/svg" viewBox="0 0 213.32 218.65"><defs><style>.cls-1{fill:#fffffe;}.cls-1,.cls-2,.cls-3{stroke:#060707;stroke-miterlimit:10;}.cls-2{fill:#fff;}.cls-3{fill:#cac9c7;}.cls-4{fill:#483014;}.cls-5{fill:#dddbd9;}</style></defs><title>Asset 4</title><g id="Layer_2" data-name="Layer 2"><g id="Layer_1-2" data-name="Layer 1"><path class="cls-1" d="M207.76,162.15a11,11,0,0,0,.85-2.23c-15.31,1-44.43-22.17-70-57-26.7-36.29-40.37-72.68-33.13-86a10.29,10.29,0,0,0-4.69-.18A70,70,0,0,0,72,29.65L51.52,45.13C14.3,73.28,7.82,128.28,37,168l9.6,13c29.21,39.7,83.06,49.05,120.28,20.91l20.46-15.48A71.21,71.21,0,0,0,207.76,162.15Z"/><ellipse class="cls-2" cx="153.96" cy="89.23" rx="21.73" ry="89.52" transform="translate(-22.94 108.48) rotate(-36.31)"/><ellipse class="cls-3" cx="154.17" cy="89.52" rx="17.04" ry="77.34" transform="translate(-23.07 108.69) rotate(-36.32)"/><path class="cls-4" d="M212.64,189.79c-9.25-7.66-28-28-55-64.71s-37.3-55.47-45.15-71.48c-2.71-5.53,30.93,25.77,57.94,62.47S217.29,193.64,212.64,189.79Z"/><path class="cls-2" d="M30.46,69c-.56-.63-4.83-6.4-5.34-7.09C16.35,50,18.3,33.5,29.46,25.05s27.33-5.64,36.09,6.27c.51.69,1,1.4,1.42,2.12L82.79,22.92c-.47-.71-1.68-2.29-2.19-3C65.31-.83,37.13-5.73,17.65,9S-5.22,52.51,10.07,73.29c.51.69,11.59,14.2,12.13,14.85Z"/><path class="cls-5" d="M183.13,167.31s-12.06-4.91-18.59-16.11c0,0-44.6,50.77-92.06,41.34,0,0,19.31,15.56,37.62,16.31C110.1,208.85,158.3,209.65,183.13,167.31Z"/></g></g></svg>