<svg xmlns="http://www.w3.org/2000/svg" viewBox="0 0 191.12 293.63"><defs><style>.cls-1{fill:#fffffe;}.cls-1,.cls-2,.cls-3{stroke:#060707;stroke-miterlimit:10;}.cls-2{fill:#fff;}.cls-3{fill:#cac9c7;}.cls-4{fill:#483014;}.cls-5{fill:#dddbd9;}</style></defs><title>Asset 5</title><g id="Layer_2" data-name="Layer 2"><g id="Layer_1-2" data-name="Layer 1"><path class="cls-1" d="M173.82,208.45a11.24,11.24,0,0,0,1.48-1.91c-15.19-3.63-36.67-34.83-51.3-76.2-15.26-43.14-17.8-82.45-6.81-93.18a10.63,10.63,0,0,0-4.51-1.58,71.26,71.26,0,0,0-31.79,3.79L56.4,48.16C11.88,64.14-10.69,115.35,6,162.54L11.48,178c16.69,47.19,66.32,72.49,110.84,56.51l24.49-8.79A71.67,71.67,0,0,0,173.82,208.45Z"/><ellipse class="cls-2" cx="143.03" cy="121.71" rx="22.03" ry="90.92" transform="translate(-32.38 54.6) rotate(-19.46)"/><ellipse class="cls-3" cx="143.15" cy="122.05" rx="17.28" ry="78.55" transform="translate(-32.49 54.67) rotate(-19.46)"/><path class="cls-4" d="M190.35,293.06C182.24,279,166.81,244.5,146,185.71s-27.75-87.1-32.71-110.77c-1.72-8.17,27.08,47.3,47.87,106.09S194.43,300.14,190.35,293.06Z"/><path class="cls-2" d="M28.86,64.88c-.36-.78-2.81-7.65-3.1-8.47-5-14.16,1.76-29.53,15.12-34.32s28.25,2.79,33.26,17c.29.83.53,1.65.75,2.48l18.5-5.4c-.25-.82-1-2.72-1.25-3.54C83.4,7.89,57.43-5.36,34.13,3S-1,38.17,7.75,62.87c.29.82,7.09,17.23,7.41,18Z"/><path class="cls-5" d="M148.33,206s-10.28-8.39-13.33-21.19c0,0-58.39,35.62-101.77,12.18,0,0,14.18,20.88,31.78,27.13C65,224.12,111.66,239.44,148.33,206Z"/></g></g></svg>