<svg xmlns="http://www.w3.org/2000/svg" viewBox="0 0 171.27 363.29"><defs><style>.cls-1{fill:#fffffe;}.cls-1,.cls-2,.cls-3{stroke:#060707;stroke-miterlimit:10;}.cls-2{fill:#fff;}.cls-3{fill:#cac9c7;}.cls-4{fill:#483014;}.cls-5{fill:#dddbd9;}</style></defs><title>Asset 6</title><g id="Layer_2" data-name="Layer 2"><g id="Layer_1-2" data-name="Layer 1"><path class="cls-1" d="M147.66,238.21a11.15,11.15,0,0,0,2.11-1.27c-13.5-8.51-23.48-44.7-23.26-88,.23-45.15,11.49-82.44,25.92-88.66a10.94,10.94,0,0,0-3.83-3A76.63,76.63,0,0,0,116.37,50L89.5,49.89C40.65,49.63.84,89.46.59,138.85L.5,155.07c-.25,49.4,39.14,89.64,88,89.9l26.87.14A76.7,76.7,0,0,0,147.66,238.21Z"/><ellipse class="cls-2" cx="148.02" cy="147.39" rx="89.72" ry="22.75" transform="translate(-0.13 294.64) rotate(-89.7)"/><ellipse class="cls-3" cx="148.01" cy="147.74" rx="77.51" ry="17.84" transform="translate(-0.49 294.99) rotate(-89.7)"/><path class="cls-4" d="M134.77,362.45c-2.71-18.79-5.38-63-5-136.17S126.62,117.55,136.26,91c3.55-9.76,9,63,8.59,136.2-.3,57.66-5.54,114.29-8.42,131.09C135.66,362.81,135.06,364.45,134.77,362.45Z"/><path class="cls-2" d="M56.9,56.06c-.07-.84-.06-8-.06-8.9a26.54,26.54,0,1,1,53.08.28c0,.87,0,1.72-.13,2.56l19.87,1.25c.05-.85,0-2.84,0-3.7C129.81,21.7,109.19.64,83.62.5S37.22,21.21,37.09,47.06c0,.86.87,18.36.91,19.21Z"/><path class="cls-5" d="M117.34,229.47S111,217.8,113.26,205c0,0-69.86,8.94-101.57-29.5,0,0,5,24.5,19.2,37.16C30.89,212.68,69,245.09,117.34,229.47Z"/></g></g></svg>