<svg xmlns="http://www.w3.org/2000/svg" viewBox="0 0 168.79 363.41"><defs><style>.cls-1{fill:#fff;}.cls-1,.cls-2,.cls-3{stroke:#060707;stroke-miterlimit:10;}.cls-2{fill:#fffffe;}.cls-3{fill:#cac9c7;}.cls-4{fill:#483014;}.cls-5{fill:#dddbd9;}</style></defs><title>Asset 7</title><g id="Layer_2" data-name="Layer 2"><g id="Layer_1-2" data-name="Layer 1"><path class="cls-1" d="M56.08,55.7c-.08-.84-.06-8-.06-8.84.08-14.72,11.85-26.6,26.29-26.52a26.42,26.42,0,0,1,26,26.8c0,.85,0,1.7-.14,2.53l19.58,1.25c0-.84,0-2.83,0-3.68C127.92,21.56,107.61.63,82.41.5S36.69,21.08,36.56,46.76c0,.85.85,18.24.89,19.08Z"/><path class="cls-2" d="M145.51,236.66a10.87,10.87,0,0,0,2.08-1.26C134.29,227,124.45,191,124.67,148c.23-44.85,11.32-81.9,25.54-88.08a10.73,10.73,0,0,0-3.78-3,74.91,74.91,0,0,0-31.75-7.2L88.2,49.57C40.06,49.31.84,88.88.58,138L.5,154.07c-.25,49.06,38.57,89.05,86.71,89.31l26.48.14A75,75,0,0,0,145.51,236.66Z"/><ellipse class="cls-1" cx="145.86" cy="146.43" rx="89.13" ry="22.42" transform="translate(-1.31 291.54) rotate(-89.71)"/><ellipse class="cls-3" cx="145.86" cy="146.78" rx="77.01" ry="17.58" transform="translate(-1.66 291.89) rotate(-89.71)"/><path class="cls-4" d="M132.81,360.09c-2.67-18.67-5.31-62.59-4.93-135.29s-3.1-108,6.4-134.39c3.49-9.7,8.84,62.61,8.46,135.31-.29,57.28-5.45,113.55-8.29,130.24C133.69,360.45,133.1,362.08,132.81,360.09Z"/><path class="cls-5" d="M115.63,228s-6.27-11.59-4-24.29c0,0-68.84,8.89-100.09-29.3,0,0,4.95,24.34,18.92,36.91C30.44,211.29,68,243.49,115.63,228Z"/><path class="cls-4" d="M149.21,353.74l-14.76,2.42-1.64,4.5,27.31,2.75A21.3,21.3,0,0,0,149.21,353.74Z"/></g></g></svg>