<svg xmlns="http://www.w3.org/2000/svg" viewBox="0 0 170.79 366.56"><defs><style>.cls-1{fill:#fffffe;}.cls-1,.cls-2,.cls-3{stroke:#060707;stroke-miterlimit:10;}.cls-2{fill:#fff;}.cls-3{fill:#cac9c7;}.cls-4{fill:#483014;}.cls-5{fill:#dddbd9;}</style></defs><title>Asset 8</title><g id="Layer_2" data-name="Layer 2"><g id="Layer_1-2" data-name="Layer 1"><path class="cls-1" d="M142.7,238.58a10.22,10.22,0,0,0,2-1.27c-13-8.52-22.68-44.77-22.47-88.14.23-45.21,11.1-82.57,25-88.8a10.6,10.6,0,0,0-3.71-3,71.91,71.91,0,0,0-31.14-7.26L86.5,50C39.3,49.71.83,89.6.58,139.07L.5,155.31c-.25,49.47,37.82,89.78,85,90l26,.14A71.73,71.73,0,0,0,142.7,238.58Z"/><ellipse class="cls-2" cx="143.04" cy="147.62" rx="89.86" ry="21.98" transform="translate(-5.28 289.93) rotate(-89.72)"/><ellipse class="cls-3" cx="143.04" cy="147.97" rx="77.63" ry="17.24" transform="translate(-5.64 290.28) rotate(-89.72)"/><path class="cls-4" d="M130.24,363c-2.62-18.82-5.2-63.09-4.83-136.38s-3-108.9,6.28-135.49c3.42-9.78,8.66,63.12,8.29,136.41-.29,57.75-5.35,114.47-8.13,131.3C131.1,363.38,130.52,365,130.24,363Z"/><path class="cls-2" d="M55,56.15c-.07-.84-.06-8-.06-8.91C55,32.39,66.56,20.42,80.72,20.5s25.59,12.17,25.52,27c0,.86-.06,1.71-.14,2.55l19.2,1.26c0-.85,0-2.85,0-3.71.13-25.89-19.79-47-44.5-47.12S36,21.24,35.86,47.13c0,.86.84,18.4.88,19.24Z"/><path class="cls-5" d="M113.4,229.82s-6.15-11.69-4-24.49c0,0-67.5,9-98.14-29.54,0,0,4.85,24.54,18.55,37.22C29.86,213,66.68,245.47,113.4,229.82Z"/><path class="cls-4" d="M146.33,356.61l-14.48,2.44-1.61,4.54L157,366.36A21.15,21.15,0,0,0,146.33,356.61Z"/><path class="cls-4" d="M146.33,356.61s17.81-12.24,13.06-23a30.4,30.4,0,0,1-1.19-20.74s5.94-11.2,10.3-4.15c0,0-7.53,4.15-5.55,7.89s4.75,7.05,5.55,10.78c.51,2.44,2.39,5.77,2.29,11.62a37.25,37.25,0,0,1-2.29,11.61c-4.76,13.69-10.69,16-12.67,16S146.33,356.61,146.33,356.61Z"/></g></g></svg>