<svg xmlns="http://www.w3.org/2000/svg" viewBox="0 0 200.71 368.71"><defs><style>.cls-1{fill:#fffffe;}.cls-1,.cls-2,.cls-3{stroke:#060707;stroke-miterlimit:10;}.cls-2{fill:#fff;}.cls-3{fill:#cac9c7;}.cls-4{fill:#483014;}.cls-5{fill:#dddbd9;}</style></defs><title>Asset 1</title><g id="Layer_2" data-name="Layer 2"><g id="Layer_1-2" data-name="Layer 1"><path class="cls-1" d="M148,240a10.85,10.85,0,0,0,2.11-1.27c-13.52-8.58-23.53-45-23.3-88.66.23-45.48,11.51-83,26-89.32a11.05,11.05,0,0,0-3.84-3,76.46,76.46,0,0,0-32.3-7.3L89.7,50.26C40.74,50,.84,90.12.59,139.88L.5,156.22C.25,206,39.73,246.53,88.69,246.79l26.93.14A76.41,76.41,0,0,0,148,240Z"/><ellipse class="cls-2" cx="148.35" cy="148.48" rx="90.38" ry="22.8" transform="translate(-0.89 296.06) rotate(-89.71)"/><ellipse class="cls-3" cx="148.35" cy="148.84" rx="78.09" ry="17.88" transform="translate(-1.25 296.42) rotate(-89.71)"/><path class="cls-4" d="M135.07,365.13c-2.71-18.92-5.39-63.46-5-137.18s-3.15-109.53,6.51-136.28c3.55-9.83,9,63.49,8.6,137.21C144.88,287,139.62,344,136.74,361,136,365.5,135.36,367.15,135.07,365.13Z"/><path class="cls-2" d="M57,56.48c-.08-.85-.07-8.1-.06-9a26.6,26.6,0,1,1,53.2.28c0,.87,0,1.73-.13,2.57L130,51.63c.05-.86,0-2.87,0-3.73C130.1,21.86,109.44.64,83.81.5S37.31,21.36,37.17,47.4c0,.87.87,18.51.91,19.36Z"/><path class="cls-5" d="M117.6,231.17s-6.38-11.76-4.09-24.63c0,0-70,9-101.8-29.72,0,0,5,24.68,19.25,37.43C31,214.25,69.14,246.9,117.6,231.17Z"/><path class="cls-4" d="M151.75,358.69l-15,2.46-1.67,4.57,27.77,2.79A21.59,21.59,0,0,0,151.75,358.69Z"/><path class="cls-4" d="M151.75,358.69s18.48-12.31,13.55-23.15a29.76,29.76,0,0,1-1.23-20.87s6.16-11.26,10.68-4.17c0,0-7.8,4.17-5.75,7.93s4.93,7.09,5.75,10.85c.54,2.45,2.48,5.8,2.38,11.68a36.49,36.49,0,0,1-2.38,11.68c-4.93,13.77-11.09,16.07-13.14,16.07S151.75,358.69,151.75,358.69Z"/><path class="cls-4" d="M165.72,363.09s12.31.2,21.11-9.19h3.52s-13.2,19.17-30.79,13.89Z"/><path class="cls-4" d="M198.56,338.43s-8.21-1.64-8.21,13.38C190.35,351.81,206.37,344.67,198.56,338.43Z"/></g></g></svg>